<?xml version="1.0" encoding="utf-8"?>
<!-- Generator: Adobe Illustrator 24.2.1, SVG Export Plug-In . SVG Version: 6.00 Build 0)  -->
<svg version="1.1" id="Layer_1" xmlns="http://www.w3.org/2000/svg" xmlns:xlink="http://www.w3.org/1999/xlink" x="0px" y="0px"
	 viewBox="0 0 20 20" style="enable-background:new 0 0 20 20;" xml:space="preserve">
<g>
	<g>
		<path d="M14.9,4.3c-0.6,0-1,0.5-1,1c0,0.6,0.5,1,1,1c0.6,0,1-0.5,1-1C15.9,4.8,15.5,4.3,14.9,4.3z M10.4,5.6
			c-2.3,0-4.2,1.9-4.2,4.2s1.9,4.2,4.2,4.2s4.2-1.9,4.2-4.2S12.8,5.6,10.4,5.6z M10.4,12.6c-1.5,0-2.7-1.2-2.7-2.7
			c0-1.5,1.2-2.7,2.7-2.7c1.5,0,2.7,1.2,2.7,2.7C13.2,11.4,11.9,12.6,10.4,12.6z M19,6.3c0-2.9-2.3-5.2-5.2-5.2H7
			c-2.9,0-5.2,2.3-5.2,5.2v6.8c0,2.9,2.3,5.2,5.2,5.2h6.8c2.9,0,5.2-2.3,5.2-5.2V6.3z M17.4,13.2c0,2-1.6,3.6-3.6,3.6H7
			c-2,0-3.6-1.6-3.6-3.6V6.3c0-2,1.6-3.6,3.6-3.6h6.8c2,0,3.6,1.6,3.6,3.6V13.2z"/>
	</g>
</g>
</svg>
